<?xml version="1.0" encoding="utf-8"?>
<!-- Generator: Adobe Illustrator 26.0.0, SVG Export Plug-In . SVG Version: 6.00 Build 0)  -->
<svg version="1.1" id="Layer_1" xmlns="http://www.w3.org/2000/svg" xmlns:xlink="http://www.w3.org/1999/xlink" x="0px" y="0px"
	 viewBox="0 0 32 32" style="enable-background:new 0 0 32 32;" xml:space="preserve">
<style type="text/css">
	.st0{fill:#D61C4E;}
	.st1{fill:#FFFFFF;}
</style>
<path class="st0" d="M16,0.04c-8.84,0-16,7.16-16,15.98C0,24.84,7.16,32,16,32s16-7.16,16-15.98C32,7.19,24.84,0.04,16,0.04z"/>
<path class="st1" d="M24.76,23.44l-3.31-1.71c-1.29,1.1-2.96,1.74-4.72,1.74c-0.42,0-0.85-0.04-1.29-0.11
	c-0.57-0.1-0.94-0.64-0.84-1.21c0.1-0.57,0.64-0.94,1.21-0.84c2.84,0.5,5.56-1.39,6.07-4.23c0.24-1.38-0.06-2.76-0.86-3.91
	c-0.8-1.14-2-1.91-3.38-2.15c-2.84-0.51-5.56,1.39-6.07,4.23c-0.1,0.57-0.64,0.94-1.21,0.84c-0.57-0.1-0.95-0.64-0.84-1.21
	c0.71-3.97,4.51-6.62,8.49-5.92c1.92,0.34,3.6,1.41,4.72,3.01c1.12,1.6,1.55,3.54,1.2,5.47c-0.07,0.36-0.15,0.71-0.27,1.05
	l1.93,4.08C25.83,23.1,25.3,23.67,24.76,23.44z"/>
<g>
	<g>
		<path class="st1" d="M17.27,29.57c-4.54,0.23-9.1-1.83-11.85-5.84C1.21,17.6,2.78,9.19,8.92,4.98c6.14-4.21,14.56-2.64,18.77,3.5
			c0.44,0.63,0.27,1.5-0.36,1.94c-0.64,0.44-1.5,0.27-1.94-0.36C22.05,5.19,15.37,3.95,10.5,7.28c-4.87,3.34-6.12,10.01-2.78,14.87
			c3.34,4.87,10.02,6.11,14.89,2.77c0.64-0.44,1.5-0.27,1.94,0.36c0.44,0.63,0.27,1.5-0.36,1.94
			C22.07,28.69,19.67,29.45,17.27,29.57z"/>
	</g>
</g>
<g>
	<g>
		<circle class="st1" cx="13.77" cy="16.13" r="1.07"/>
	</g>
</g>
<g>
	<g>
		<circle class="st1" cx="16.62" cy="16.13" r="1.07"/>
	</g>
</g>
<g>
	<g>
		<circle class="st1" cx="19.48" cy="16.13" r="1.07"/>
	</g>
</g>
</svg>
